<svg width="615.5px" height="122px" xmlns="http://www.w3.org/2000/svg" viewBox="-57.740624999999966 14 615.4812499999999 122" style="background: rgba(0, 0, 0, 0)" preserveAspectRatio="xMidYMid"><defs><filter id="editing-extrude-glow"><feFlood flood-color="#333333" result="flood-1"></feFlood><feMorphology operator="erode" radius="1" in="SourceAlpha" result="erode"></feMorphology><feComposite operator="in" in="flood-1" in2="erode" result="comp1"></feComposite><feConvolveMatrix order="3,3" divisor="1" in="comp1" result="convolve" kernelMatrix="0 0 0 1 1 1 0 0 0"></feConvolveMatrix><feOffset dx="-3" dy="0" in="convolve" result="extrude"></feOffset><feComposite operator="in" in="flood-1" in2="extrude" result="comp-extrude"></feComposite><feFlood flood-color="#000000" result="flood-2"></feFlood><feComposite operator="in" in="flood-2" in2="SourceAlpha" result="comp2"></feComposite><feMorphology operator="dilate" radius="1" in="comp2" result="dilate"></feMorphology><feOffset dx="-4.5" dy="0" in="dilate" result="offset"></feOffset><feGaussianBlur in="offset" stdDeviation="5.8" result="blur"></feGaussianBlur><feComponentTransfer in="blur" result="shadow"><feFuncA type="linear" slope="0.8" intercept="-0.2"></feFuncA></feComponentTransfer><feMerge><feMergeNode in="shadow"></feMergeNode><feMergeNode in="comp-extrude"></feMergeNode><feMergeNode in="SourceGraphic"></feMergeNode></feMerge></filter></defs><g filter="url(#editing-extrude-glow)"><g transform="matrix(1,0,0,1.2,22.4,131.7)"><path d="M -15 -24.6 L -29 -24.6 L -20.9 -66.8 L -6.8 -66.8 L -15 -24.6 Z M 40.7 -23.3 L 40.7 -23.3 L 40.7 -23.3 Q 33 -23.3 33 -29.3 L 33 -29.3 L 33 -29.3 Q 33 -32 34.1 -37.1 L 34.1 -37.1 L 34.1 -37.1 Q 35.2 -42.1 35.6 -44.2 L 35.6 -44.2 L 35.6 -44.2 Q 36.5 -48.9 36.5 -50.3 L 36.5 -50.3 L 36.5 -50.3 Q 36.5 -53.6 34.1 -53.6 L 34.1 -53.6 L 34.1 -53.6 Q 32.5 -53.6 30.9 -51.4 L 30.9 -51.4 L 30.9 -51.4 Q 29.4 -49.2 28.7 -44.8 L 28.7 -44.8 L 24.7 -24.6 L 12.2 -23.3 L 15.7 -40.7 L 15.7 -40.7 Q 16.3 -43.6 16.8 -46.9 L 16.8 -46.9 L 16.8 -46.9 Q 17.3 -50.1 17.3 -50.7 L 17.3 -50.7 L 17.3 -50.7 Q 17.3 -53.6 15.1 -53.6 L 15.1 -53.6 L 15.1 -53.6 Q 13.6 -53.6 12 -51.4 L 12 -51.4 L 12 -51.4 Q 10.4 -49.2 9.5 -44.8 L 9.5 -44.8 L 5.6 -24.6 L -7 -23.3 L -0.2 -57.2 L 10.2 -58.5 L 9.1 -52.1 L 9.1 -52.1 Q 10.8 -55.5 13.8 -57 L 13.8 -57 L 13.8 -57 Q 16.9 -58.5 21.7 -58.5 L 21.7 -58.5 L 21.7 -58.5 Q 24.5 -58.5 26.3 -57.2 L 26.3 -57.2 L 26.3 -57.2 Q 28 -55.8 28.6 -53.7 L 28.6 -53.7 L 28.6 -53.7 Q 29.7 -55.9 32.5 -57.2 L 32.5 -57.2 L 32.5 -57.2 Q 35.3 -58.5 38.7 -58.5 L 38.7 -58.5 L 38.7 -58.5 Q 42.1 -58.5 43.8 -57.8 L 43.8 -57.8 L 43.8 -57.8 Q 45.5 -57.1 46.5 -55.8 L 46.5 -55.8 L 46.5 -55.8 Q 48.3 -53.6 48.3 -49.5 L 48.3 -49.5 L 48.3 -49.5 Q 48.3 -45.5 46.5 -37.1 L 46.5 -37.1 L 46.5 -37.1 Q 45.6 -33 45.6 -31.5 L 45.6 -31.5 L 45.6 -31.5 Q 45.6 -30 46.5 -29.1 L 46.5 -29.1 L 46.5 -29.1 Q 47.4 -28.2 48.7 -28.1 L 48.7 -28.1 L 48.7 -28.1 Q 48 -25.9 45.8 -24.6 L 45.8 -24.6 L 45.8 -24.6 Q 43.6 -23.3 40.7 -23.3 Z M 56.4 -26.5 L 56.4 -26.5 L 56.4 -26.5 Q 54.9 -28.2 54.2 -30.8 L 54.2 -30.8 L 54.2 -30.8 Q 53.5 -33.4 53.5 -37.7 L 53.5 -37.7 L 53.5 -37.7 Q 53.5 -42 55 -45.9 L 55 -45.9 L 55 -45.9 Q 56.5 -49.8 59.1 -52.6 L 59.1 -52.6 L 59.1 -52.6 Q 64.7 -58.5 73.7 -58.5 L 73.7 -58.5 L 73.7 -58.5 Q 77 -58.5 79.4 -57.4 L 79.4 -57.4 L 90.3 -58.5 L 85.6 -33.6 L 85.6 -33.6 Q 85.4 -32.8 85.4 -31.4 L 85.4 -31.4 L 85.4 -31.4 Q 85.4 -30 86.3 -29.1 L 86.3 -29.1 L 86.3 -29.1 Q 87.1 -28.2 88.4 -28.1 L 88.4 -28.1 L 88.4 -28.1 Q 87.8 -25.9 85.4 -24.6 L 85.4 -24.6 L 85.4 -24.6 Q 83.1 -23.3 80.5 -23.3 L 80.5 -23.3 L 80.5 -23.3 Q 77.8 -23.3 76.1 -24.3 L 76.1 -24.3 L 76.1 -24.3 Q 74.3 -25.3 73.8 -27 L 73.8 -27 L 73.8 -27 Q 72.8 -25.4 70.6 -24.3 L 70.6 -24.3 L 70.6 -24.3 Q 68.4 -23.3 65.5 -23.3 L 65.5 -23.3 L 65.5 -23.3 Q 62.6 -23.3 60.2 -24.1 L 60.2 -24.1 L 60.2 -24.1 Q 57.9 -24.9 56.4 -26.5 Z M 69.9 -52.5 L 69.9 -52.5 L 69.9 -52.5 Q 69.1 -51.4 68.5 -49.4 L 68.5 -49.4 L 68.5 -49.4 Q 67.9 -47.5 66.8 -42.2 L 66.8 -42.2 L 66.8 -42.2 Q 65.7 -37 65.7 -33.3 L 65.7 -33.3 L 65.7 -33.3 Q 65.7 -29.6 66.3 -28.5 L 66.3 -28.5 L 66.3 -28.5 Q 66.9 -27.4 67.9 -27.4 L 67.9 -27.4 L 67.9 -27.4 Q 70 -27.4 71.5 -29.4 L 71.5 -29.4 L 71.5 -29.4 Q 73 -31.3 73.5 -34.8 L 73.5 -34.8 L 76.9 -53.5 L 76.9 -53.5 Q 75.6 -54.7 74 -54.7 L 74 -54.7 L 74 -54.7 Q 72.5 -54.7 71.5 -54.2 L 71.5 -54.2 L 71.5 -54.2 Q 70.6 -53.7 69.9 -52.5 Z M 98.1 -51.4 L 98.1 -51.4 L 98.1 -51.4 Q 100.2 -54.4 103.5 -56.5 L 103.5 -56.5 L 103.5 -56.5 Q 106.8 -58.5 110.9 -58.5 L 110.9 -58.5 L 110.9 -58.5 Q 114.9 -58.5 116.8 -57.2 L 116.8 -57.2 L 129.4 -58.5 L 125 -33.9 L 125 -33.9 Q 122.8 -21.4 118 -16.5 L 118 -16.5 L 118 -16.5 Q 113.5 -11.8 104.7 -11.8 L 104.7 -11.8 L 104.7 -11.8 Q 97.9 -11.8 94.1 -13.9 L 94.1 -13.9 L 94.1 -13.9 Q 90.3 -16 90.3 -19.5 L 90.3 -19.5 L 90.3 -19.5 Q 90.3 -22.2 92.2 -23.7 L 92.2 -23.7 L 92.2 -23.7 Q 94.2 -25.2 97.3 -25.2 L 97.3 -25.2 L 97.3 -25.2 Q 100 -25.2 102 -24 L 102 -24 L 102 -24 Q 103.2 -23.3 103.8 -22.4 L 103.8 -22.4 L 103.8 -22.4 Q 102.3 -21.1 102.3 -19 L 102.3 -19 L 102.3 -19 Q 102.3 -16.3 104.9 -16.3 L 104.9 -16.3 L 104.9 -16.3 Q 109.2 -16.3 111.6 -26.4 L 111.6 -26.4 L 111.6 -26.4 Q 112.3 -29.1 112.9 -31.9 L 112.9 -31.9 L 112.9 -31.9 Q 110 -28.4 103.5 -28.4 L 103.5 -28.4 L 103.5 -28.4 Q 99 -28.4 96.3 -30.6 L 96.3 -30.6 L 96.3 -30.6 Q 93.7 -32.7 93.7 -37.9 L 93.7 -37.9 L 93.7 -37.9 Q 93.7 -41.1 94.8 -44.7 L 94.8 -44.7 L 94.8 -44.7 Q 95.9 -48.3 98.1 -51.4 Z M 106.4 -37.7 L 106.4 -37.7 L 106.4 -37.7 Q 106.4 -33.3 108.6 -33.3 L 108.6 -33.3 L 108.6 -33.3 Q 110.2 -33.3 111.6 -35 L 111.6 -35 L 111.6 -35 Q 112.8 -36.3 113.2 -38.3 L 113.2 -38.3 L 116.5 -54.7 L 116.5 -54.7 Q 116.2 -54.8 115.9 -54.9 L 115.9 -54.9 L 115.9 -54.9 Q 115.2 -55.2 114.4 -55.2 L 114.4 -55.2 L 114.4 -55.2 Q 110.5 -55.2 108.2 -48.8 L 108.2 -48.8 L 108.2 -48.8 Q 106.4 -43.8 106.4 -37.7 Z M 157.8 -35.4 L 157.8 -35.4 L 157.8 -35.4 Q 159.4 -34.3 159.4 -31.9 L 159.4 -31.9 L 159.4 -31.9 Q 159.4 -29.5 158.2 -28 L 158.2 -28 L 158.2 -28 Q 156.9 -26.5 155 -25.4 L 155 -25.4 L 155 -25.4 Q 150.9 -23.3 146.4 -23.3 L 146.4 -23.3 L 146.4 -23.3 Q 142 -23.3 139.4 -24.3 L 139.4 -24.3 L 139.4 -24.3 Q 136.8 -25.2 135.1 -27 L 135.1 -27 L 135.1 -27 Q 131.7 -30.4 131.7 -36.6 L 131.7 -36.6 L 131.7 -36.6 Q 131.7 -46.3 137 -52.2 L 137 -52.2 L 137 -52.2 Q 142.6 -58.5 152.4 -58.5 L 152.4 -58.5 L 152.4 -58.5 Q 158.5 -58.5 161.5 -56 L 161.5 -56 L 161.5 -56 Q 163.7 -54 163.7 -50.9 L 163.7 -50.9 L 163.7 -50.9 Q 163.7 -39.6 144.3 -39.6 L 144.3 -39.6 L 144.3 -39.6 Q 144 -38 144 -36.6 L 144 -36.6 L 144 -36.6 Q 144 -33.6 145.3 -32.5 L 145.3 -32.5 L 145.3 -32.5 Q 146.6 -31.4 149.1 -31.4 L 149.1 -31.4 L 149.1 -31.4 Q 151.5 -31.4 154.1 -32.5 L 154.1 -32.5 L 154.1 -32.5 Q 156.7 -33.6 157.8 -35.4 Z M 144.7 -42.4 L 144.7 -42.4 L 144.7 -42.4 Q 149.3 -42.4 151.9 -45.2 L 151.9 -45.2 L 151.9 -45.2 Q 154.5 -47.9 154.5 -52.2 L 154.5 -52.2 L 154.5 -52.2 Q 154.5 -53.7 154 -54.5 L 154 -54.5 L 154 -54.5 Q 153.4 -55.3 152.3 -55.3 L 152.3 -55.3 L 152.3 -55.3 Q 151.2 -55.3 150.3 -54.8 L 150.3 -54.8 L 150.3 -54.8 Q 149.4 -54.4 148.4 -53 L 148.4 -53 L 148.4 -53 Q 146.1 -49.8 144.7 -42.4 Z M 205 -45.2 L 217.9 -46.4 L 217.9 -46.4 Q 213.3 -36.3 213.3 -24.5 L 213.3 -24.5 L 213.3 -24.5 Q 211.6 -23.3 209.1 -23.3 L 209.1 -23.3 L 209.1 -23.3 Q 206.5 -23.3 204.9 -24.5 L 204.9 -24.5 L 204.9 -24.5 Q 203.3 -25.7 203 -26.9 L 203 -26.9 L 203 -26.9 Q 201.4 -25.2 198.8 -24.3 L 198.8 -24.3 L 198.8 -24.3 Q 196.2 -23.3 193.5 -23.3 L 193.5 -23.3 L 193.5 -23.3 Q 190.7 -23.3 188.3 -24.2 L 188.3 -24.2 L 188.3 -24.2 Q 185.9 -25.1 184.1 -27.1 L 184.1 -27.1 L 184.1 -27.1 Q 180 -31.5 180 -39.7 L 180 -39.7 L 180 -39.7 Q 180 -52.5 186.8 -60.2 L 186.8 -60.2 L 186.8 -60.2 Q 193.9 -68.1 206.3 -68.1 L 206.3 -68.1 L 206.3 -68.1 Q 215 -68.1 218.1 -63.6 L 218.1 -63.6 L 218.1 -63.6 Q 219 -62.2 219 -60.5 L 219 -60.5 L 219 -60.5 Q 219 -58.8 218.3 -57.4 L 218.3 -57.4 L 218.3 -57.4 Q 217.5 -56 216.4 -54.8 L 216.4 -54.8 L 216.4 -54.8 Q 213.6 -52.3 210.3 -52.3 L 210.3 -52.3 L 210.3 -52.3 Q 208.9 -52.3 207.6 -52.7 L 207.6 -52.7 L 207.6 -52.7 Q 207.9 -54.6 207.9 -56.9 L 207.9 -56.9 L 207.9 -56.9 Q 207.9 -59.1 207.7 -60.1 L 207.7 -60.1 L 207.7 -60.1 Q 207.6 -61.1 207.2 -62 L 207.2 -62 L 207.2 -62 Q 206.3 -63.7 204.5 -63.7 L 204.5 -63.7 L 204.5 -63.7 Q 202.7 -63.7 200.7 -61.8 L 200.7 -61.8 L 200.7 -61.8 Q 198.7 -59.8 197.1 -56.6 L 197.1 -56.6 L 197.1 -56.6 Q 193.5 -49.4 193.5 -40.8 L 193.5 -40.8 L 193.5 -40.8 Q 193.5 -36.8 195.1 -34 L 195.1 -34 L 195.1 -34 Q 196.7 -30.9 199.7 -30.9 L 199.7 -30.9 L 199.7 -30.9 Q 200.7 -30.9 201.6 -31.5 L 201.6 -31.5 L 201.6 -31.5 Q 202.6 -32 203 -32.3 L 203 -32.3 L 205 -45.2 Z M 223.9 -26.5 L 223.9 -26.5 L 223.9 -26.5 Q 222.3 -28.2 221.7 -30.8 L 221.7 -30.8 L 221.7 -30.8 Q 221 -33.4 221 -37.7 L 221 -37.7 L 221 -37.7 Q 221 -42 222.5 -45.9 L 222.5 -45.9 L 222.5 -45.9 Q 223.9 -49.8 226.6 -52.6 L 226.6 -52.6 L 226.6 -52.6 Q 232.1 -58.5 241.2 -58.5 L 241.2 -58.5 L 241.2 -58.5 Q 244.5 -58.5 246.9 -57.4 L 246.9 -57.4 L 257.8 -58.5 L 253.1 -33.6 L 253.1 -33.6 Q 252.9 -32.8 252.9 -31.4 L 252.9 -31.4 L 252.9 -31.4 Q 252.9 -30 253.7 -29.1 L 253.7 -29.1 L 253.7 -29.1 Q 254.6 -28.2 255.9 -28.1 L 255.9 -28.1 L 255.9 -28.1 Q 255.2 -25.9 252.9 -24.6 L 252.9 -24.6 L 252.9 -24.6 Q 250.6 -23.3 247.9 -23.3 L 247.9 -23.3 L 247.9 -23.3 Q 245.3 -23.3 243.6 -24.3 L 243.6 -24.3 L 243.6 -24.3 Q 241.8 -25.3 241.3 -27 L 241.3 -27 L 241.3 -27 Q 240.3 -25.4 238.1 -24.3 L 238.1 -24.3 L 238.1 -24.3 Q 235.9 -23.3 233 -23.3 L 233 -23.3 L 233 -23.3 Q 230.1 -23.3 227.7 -24.1 L 227.7 -24.1 L 227.7 -24.1 Q 225.4 -24.9 223.9 -26.5 Z M 237.4 -52.5 L 237.4 -52.5 L 237.4 -52.5 Q 236.6 -51.4 236 -49.4 L 236 -49.4 L 236 -49.4 Q 235.3 -47.5 234.3 -42.2 L 234.3 -42.2 L 234.3 -42.2 Q 233.2 -37 233.2 -33.3 L 233.2 -33.3 L 233.2 -33.3 Q 233.2 -29.6 233.8 -28.5 L 233.8 -28.5 L 233.8 -28.5 Q 234.4 -27.4 235.4 -27.4 L 235.4 -27.4 L 235.4 -27.4 Q 237.5 -27.4 239 -29.4 L 239 -29.4 L 239 -29.4 Q 240.5 -31.3 241 -34.8 L 241 -34.8 L 244.4 -53.5 L 244.4 -53.5 Q 243.1 -54.7 241.5 -54.7 L 241.5 -54.7 L 241.5 -54.7 Q 239.9 -54.7 239 -54.2 L 239 -54.2 L 239 -54.2 Q 238.1 -53.7 237.4 -52.5 Z M 276.6 -28.1 L 276.6 -28.1 L 276.6 -28.1 Q 274.6 -23.3 268.2 -23.3 L 268.2 -23.3 L 268.2 -23.3 Q 265 -23.3 263 -25.6 L 263 -25.6 L 263 -25.6 Q 261.3 -27.4 261.3 -29.5 L 261.3 -29.5 L 261.3 -29.5 Q 261.3 -34.3 263.6 -44.8 L 263.6 -44.8 L 268.2 -69.4 L 281.2 -70.7 L 275 -38.3 L 275 -38.3 Q 273.9 -33.6 273.9 -31.9 L 273.9 -31.9 L 273.9 -31.9 Q 273.9 -28.3 276.6 -28.1 Z M 297.3 -28.1 L 297.3 -28.1 L 297.3 -28.1 Q 295.3 -23.3 289 -23.3 L 289 -23.3 L 289 -23.3 Q 285.8 -23.3 283.7 -25.6 L 283.7 -25.6 L 283.7 -25.6 Q 282.1 -27.4 282.1 -29.5 L 282.1 -29.5 L 282.1 -29.5 Q 282.1 -34.3 284.3 -44.8 L 284.3 -44.8 L 289 -69.4 L 302 -70.7 L 295.8 -38.3 L 295.8 -38.3 Q 294.7 -33.6 294.7 -31.9 L 294.7 -31.9 L 294.7 -31.9 Q 294.7 -28.3 297.3 -28.1 Z M 328.7 -35.4 L 328.7 -35.4 L 328.7 -35.4 Q 330.3 -34.3 330.3 -31.9 L 330.3 -31.9 L 330.3 -31.9 Q 330.3 -29.5 329 -28 L 329 -28 L 329 -28 Q 327.8 -26.5 325.8 -25.4 L 325.8 -25.4 L 325.8 -25.4 Q 321.7 -23.3 317.3 -23.3 L 317.3 -23.3 L 317.3 -23.3 Q 312.9 -23.3 310.3 -24.3 L 310.3 -24.3 L 310.3 -24.3 Q 307.7 -25.2 306 -27 L 306 -27 L 306 -27 Q 302.6 -30.4 302.6 -36.6 L 302.6 -36.6 L 302.6 -36.6 Q 302.6 -46.3 307.9 -52.2 L 307.9 -52.2 L 307.9 -52.2 Q 313.5 -58.5 323.3 -58.5 L 323.3 -58.5 L 323.3 -58.5 Q 329.4 -58.5 332.4 -56 L 332.4 -56 L 332.4 -56 Q 334.6 -54 334.6 -50.9 L 334.6 -50.9 L 334.6 -50.9 Q 334.6 -39.6 315.1 -39.6 L 315.1 -39.6 L 315.1 -39.6 Q 314.9 -38 314.9 -36.6 L 314.9 -36.6 L 314.9 -36.6 Q 314.9 -33.6 316.2 -32.5 L 316.2 -32.5 L 316.2 -32.5 Q 317.5 -31.4 319.9 -31.4 L 319.9 -31.4 L 319.9 -31.4 Q 322.4 -31.4 325 -32.5 L 325 -32.5 L 325 -32.5 Q 327.6 -33.6 328.7 -35.4 Z M 315.6 -42.4 L 315.6 -42.4 L 315.6 -42.4 Q 320.1 -42.4 322.8 -45.2 L 322.8 -45.2 L 322.8 -45.2 Q 325.4 -47.9 325.4 -52.2 L 325.4 -52.2 L 325.4 -52.2 Q 325.4 -53.7 324.8 -54.5 L 324.8 -54.5 L 324.8 -54.5 Q 324.3 -55.3 323.2 -55.3 L 323.2 -55.3 L 323.2 -55.3 Q 322.1 -55.3 321.2 -54.8 L 321.2 -54.8 L 321.2 -54.8 Q 320.3 -54.4 319.3 -53 L 319.3 -53 L 319.3 -53 Q 316.9 -49.8 315.6 -42.4 Z M 356.8 -42.6 L 356.8 -42.6 L 356.8 -42.6 Q 359.1 -46.7 359.1 -50.8 L 359.1 -50.8 L 359.1 -50.8 Q 359.1 -53.6 357.1 -53.6 L 357.1 -53.6 L 357.1 -53.6 Q 355.6 -53.6 354 -51 L 354 -51 L 354 -51 Q 352.3 -48.3 351.8 -45 L 351.8 -45 L 348.5 -24.6 L 335.2 -23.3 L 341.8 -57.2 L 352.3 -58.5 L 351.2 -52.1 L 351.2 -52.1 Q 354.3 -58.5 361.4 -58.5 L 361.4 -58.5 L 361.4 -58.5 Q 365.1 -58.5 367.1 -56.6 L 367.1 -56.6 L 367.1 -56.6 Q 369.1 -54.7 369.1 -50.7 L 369.1 -50.7 L 369.1 -50.7 Q 369.1 -46.8 366.5 -44.3 L 366.5 -44.3 L 366.5 -44.3 Q 363.9 -41.8 359.5 -41.8 L 359.5 -41.8 L 359.5 -41.8 Q 357.6 -41.8 356.8 -42.6 Z M 390.5 -31.8 L 390.5 -31.8 L 390.5 -31.8 Q 387.1 -28.4 381.1 -28.4 L 381.1 -28.4 L 381.1 -28.4 Q 373.5 -28.4 371.9 -33.9 L 371.9 -33.9 L 371.9 -33.9 Q 371.3 -35.6 371.3 -37.5 L 371.3 -37.5 L 371.3 -37.5 Q 371.3 -39.3 371.7 -41.2 L 371.7 -41.2 L 374.7 -57.2 L 387.7 -58.5 L 384.2 -39.9 L 384.2 -39.9 Q 384.1 -39.1 383.9 -38.2 L 383.9 -38.2 L 383.9 -38.2 Q 383.7 -37.3 383.7 -36.3 L 383.7 -36.3 L 383.7 -36.3 Q 383.7 -35.4 384 -34.8 L 384 -34.8 L 384 -34.8 Q 384.3 -34.2 384.8 -33.8 L 384.8 -33.8 L 384.8 -33.8 Q 385.5 -33.3 386.9 -33.3 L 386.9 -33.3 L 386.9 -33.3 Q 388.3 -33.3 389.5 -35 L 389.5 -35 L 389.5 -35 Q 390.7 -36.6 391.2 -39.5 L 391.2 -39.5 L 394.8 -57.2 L 407.4 -58.5 L 402.6 -33.4 L 402.6 -33.4 Q 400.2 -21.1 395.3 -16.2 L 395.3 -16.2 L 395.3 -16.2 Q 392.8 -13.7 389.6 -12.7 L 389.6 -12.7 L 389.6 -12.7 Q 386.4 -11.7 382.2 -11.7 L 382.2 -11.7 L 382.2 -11.7 Q 375.5 -11.7 371.7 -13.9 L 371.7 -13.9 L 371.7 -13.9 Q 367.8 -16 367.8 -19.5 L 367.8 -19.5 L 367.8 -19.5 Q 367.8 -22.1 369.8 -23.6 L 369.8 -23.6 L 369.8 -23.6 Q 371.8 -25.1 374.9 -25.1 L 374.9 -25.1 L 374.9 -25.1 Q 377.5 -25.1 379.6 -24 L 379.6 -24 L 379.6 -24 Q 380.8 -23.3 381.4 -22.4 L 381.4 -22.4 L 381.4 -22.4 Q 379.9 -21.1 379.9 -19 L 379.9 -19 L 379.9 -19 Q 379.9 -16.2 382.5 -16.2 L 382.5 -16.2 L 382.5 -16.2 Q 386.7 -16.2 389.1 -25.9 L 389.1 -25.9 L 389.1 -25.9 Q 389.8 -28.8 390.5 -31.8 Z" fill="#eb6c6c"></path></g></g><style>text {
  font-size: 64px;
  font-family: Arial Black;
  dominant-baseline: central;
  text-anchor: middle;
}</style></svg>